# xmcd
# 
# Track frame offsets:
#     150
#     16150
#     34148
#     46550
#     65970
#     85510
#     101051
#     121003
#     141291
#     166149
#     186669
# 
# Disc length: 2897
# 
# Revision: 1
# Processed by: cddbd v1.5.2PL0 Copyright (c) Steve Scherf et al.
# Submitted via: fre:ac v1.0.31
# 
DISCID=8c0b4f0b
DTITLE=Various Artist - Origine Grand Massif Musique 2017
DYEAR=2017
DGENRE=
TTITLE0=Bear's Towers - You gonna miss me
TTITLE1=Au comptoir des histoires - Les restes du coeur
TTITLE2=TOST - Made in France
TTITLE3=Valerian Mcabbit - Monsters
TTITLE4=Jack's Sound - Maintenant ou Jamais
TTITLE5=Stiff Neck - St. Patrick's Day
TTITLE6=Le Code - Who is it
TTITLE7=Masta Kim - Le Temps Passe Featuring Dappa Ruk
TTITLE8=White Noise - Aging and Dying
TTITLE9=Rage Against the Marmottes - A ta santé (Live)
TTITLE10=Wash your hands - Never Let Me Down (Live aux Pépites)
EXTD=
EXTT0=
EXTT1=
EXTT2=
EXTT3=
EXTT4=
EXTT5=
EXTT6=
EXTT7=
EXTT8=
EXTT9=
EXTT10=
PLAYORDER=
